<?xml version="1.0" encoding="UTF-8"?>
<svg width="785px" height="976px" viewBox="0 0 785 976" version="1.1" xmlns="http://www.w3.org/2000/svg" xmlns:xlink="http://www.w3.org/1999/xlink">
    <title>inProgressIcon</title>
    <g id="Page-1" stroke="none" stroke-width="1" fill="none" fill-rule="evenodd">
        <g id="TimeSenseLogo" transform="translate(175.000000, 0.000000)" fill="#231F20" fill-rule="nonzero">
            <path d="M217.5,-5.68434189e-14 C337.43,-5.68434189e-14 435,97.41 435,217.15 C435,267.36 401.06,332.51 334.06,410.81 C307.03,442.41 280.24,469.62 261.74,487.57 C280.24,505.53 307.03,532.74 334.06,564.38 C401,642.68 435,707.83 435,758.04 C435,877.78 337.43,975.19 217.5,975.19 C97.57,975.19 0,877.78 0,758.04 C0,707.83 33.94,642.68 100.94,564.38 C122.200526,539.527368 143.317701,517.410886 160.364931,500.343209 L161.719952,498.988609 C165.758522,494.957386 169.556632,491.220526 173.06,487.81 C147.37,463.19 125.03,438.97 100.94,410.81 C34,332.51 0,267.36 0,217.15 C0,97.4 97.57,-5.68434189e-14 217.5,-5.68434189e-14 Z M217.5,528.2 C213.4405,532.1192 208.886385,536.575864 203.954945,541.495895 L202.66,542.789844 C186.368125,559.094375 166.1725,580.2575 146.14,603.71 C71.19,691.46 60,737.98 60,757.98 C60,844.69 130.65,915.23 217.5,915.23 L217.5,915.23 L217.5,915.25 C304.35,915.25 375,844.71 375,757.98 C375,738.03 363.81,691.46 288.86,603.71 C262.15,572.44 235.15,545.2 217.5,528.2 Z M217.5,59.9 C130.66,59.9 60,130.4 60,217.13 C60,237.08 71.14,283.65 146.14,371.4 C172.85,402.69 199.85,429.89 217.5,446.93 C235.15,429.88 262.15,402.69 288.86,371.42 C363.81,283.67 375,237.1 375,217.15 C375,130.4 304.34,59.9 217.5,59.9 Z M217.5,290 C232.135546,290 244,301.864454 244,316.5 C244,331.135546 232.135546,343 217.5,343 C202.864454,343 191,331.135546 191,316.5 C191,301.864454 202.864454,290 217.5,290 Z M217.5,206 C232.135546,206 244,217.864454 244,232.5 C244,247.135546 232.135546,259 217.5,259 C202.864454,259 191,247.135546 191,232.5 C191,217.864454 202.864454,206 217.5,206 Z M217.5,122 C232.135546,122 244,133.864454 244,148.5 C244,163.135546 232.135546,175 217.5,175 C202.864454,175 191,163.135546 191,148.5 C191,133.864454 202.864454,122 217.5,122 Z" id="Combined-Shape" transform="translate(217.500000, 487.595000) scale(1, -1) translate(-217.500000, -487.595000) "></path>
        </g>
        <g id="inProgressIcon" transform="translate(175.000000, 0.000000)" fill="#F8FAFA" fill-rule="nonzero">
            <path d="M217.5,-5.68434189e-14 C337.43,-5.68434189e-14 435,97.41 435,217.15 C435,267.36 401.06,332.51 334.06,410.81 C307.03,442.41 280.24,469.62 261.74,487.57 C280.24,505.53 307.03,532.74 334.06,564.38 C401,642.68 435,707.83 435,758.04 C435,877.78 337.43,975.19 217.5,975.19 C97.57,975.19 0,877.78 0,758.04 C0,707.83 33.94,642.68 100.94,564.38 C122.200526,539.527368 143.317701,517.410886 160.364931,500.343209 L161.719952,498.988609 C165.758522,494.957386 169.556632,491.220526 173.06,487.81 C147.37,463.19 125.03,438.97 100.94,410.81 C34,332.51 0,267.36 0,217.15 C0,97.4 97.57,-5.68434189e-14 217.5,-5.68434189e-14 Z M217.5,528.2 C213.4405,532.1192 208.886385,536.575864 203.954945,541.495895 L202.66,542.789844 C186.368125,559.094375 166.1725,580.2575 146.14,603.71 C71.19,691.46 60,737.98 60,757.98 C60,844.69 130.65,915.23 217.5,915.23 L217.5,915.23 L217.5,915.25 C304.35,915.25 375,844.71 375,757.98 C375,738.03 363.81,691.46 288.86,603.71 C262.15,572.44 235.15,545.2 217.5,528.2 Z M217.5,59.9 C130.66,59.9 60,130.4 60,217.13 C60,237.08 71.14,283.65 146.14,371.4 C172.85,402.69 199.85,429.89 217.5,446.93 C235.15,429.88 262.15,402.69 288.86,371.42 C363.81,283.67 375,237.1 375,217.15 C375,130.4 304.34,59.9 217.5,59.9 Z M217.5,290 C232.135546,290 244,301.864454 244,316.5 C244,331.135546 232.135546,343 217.5,343 C202.864454,343 191,331.135546 191,316.5 C191,301.864454 202.864454,290 217.5,290 Z M217.5,206 C232.135546,206 244,217.864454 244,232.5 C244,247.135546 232.135546,259 217.5,259 C202.864454,259 191,247.135546 191,232.5 C191,217.864454 202.864454,206 217.5,206 Z M217.5,122 C232.135546,122 244,133.864454 244,148.5 C244,163.135546 232.135546,175 217.5,175 C202.864454,175 191,163.135546 191,148.5 C191,133.864454 202.864454,122 217.5,122 Z" id="Combined-Shape" transform="translate(217.500000, 487.595000) scale(1, -1) translate(-217.500000, -487.595000) "></path>
        </g>
    </g>
</svg>