<?xml version="1.0" encoding="UTF-8"?>
<svg width="785px" height="976px" viewBox="0 0 785 976" version="1.1" xmlns="http://www.w3.org/2000/svg" xmlns:xlink="http://www.w3.org/1999/xlink">
    <title>resetIcon</title>
    <g id="Page-1" stroke="none" stroke-width="1" fill="none" fill-rule="evenodd">
        <g id="resetIcon" fill="#F8FAFA" fill-rule="nonzero">
            <path d="M392.5,-5.68434189e-14 C512.43,-5.68434189e-14 610,97.41 610,217.15 C610,267.36 576.06,332.51 509.06,410.81 C482.03,442.41 455.24,469.62 436.74,487.57 C455.24,505.53 482.03,532.74 509.06,564.38 C576,642.68 610,707.83 610,758.04 C610,877.78 512.43,975.19 392.5,975.19 C272.57,975.19 175,877.78 175,758.04 C175,707.83 208.94,642.68 275.94,564.38 C297.200526,539.527368 318.317701,517.410886 335.364931,500.343209 L336.719952,498.988609 C340.758522,494.957386 344.556632,491.220526 348.06,487.81 C322.37,463.19 300.03,438.97 275.94,410.81 C209,332.51 175,267.36 175,217.15 C175,97.4 272.57,-5.68434189e-14 392.5,-5.68434189e-14 Z M392.5,528.2 C388.4405,532.1192 383.886385,536.575864 378.954945,541.495895 L377.66,542.789844 C361.368125,559.094375 341.1725,580.2575 321.14,603.71 C246.19,691.46 235,737.98 235,757.98 C235,844.69 305.65,915.23 392.5,915.23 L392.5,915.23 L392.5,915.25 C479.35,915.25 550,844.71 550,757.98 C550,738.03 538.81,691.46 463.86,603.71 C437.15,572.44 410.15,545.2 392.5,528.2 Z M59,334 L153,347.190357 L111.752536,427 L97.6925017,402.213104 C68.2103579,420.861569 48.6217558,453.837628 48.6217558,491.407243 C48.6217558,541.847384 83.9305217,584.007567 131.085831,594.331245 L120.678022,642.027491 C51.6708097,626.91925 0,565.221688 0,491.407243 C0,435.666328 29.4652921,386.835067 73.6106567,359.758121 L59,334 Z M392.5,59.9 C305.66,59.9 235,130.4 235,217.13 C235,237.08 246.14,283.65 321.14,371.4 C347.85,402.69 374.85,429.89 392.5,446.93 C396.5595,443.0085 401.113615,438.550594 406.045055,433.630014 L407.34,432.335937 C423.631875,416.03 443.8275,394.8725 463.86,371.42 C538.81,283.67 550,237.1 550,217.15 C550,130.4 479.34,59.9 392.5,59.9 Z" id="Combined-Shape"></path>
            <path d="M392.5,573.4 C392.5,573.4 267.12,685.89 267.12,757.31 C267.12,828.73 323.25,886.63 392.5,886.63 C461.75,886.63 517.88,828.73 517.88,757.31 C517.88,685.89 392.5,573.4 392.5,573.4 Z" id="Path"></path>
        </g>
    </g>
</svg>