<?xml version="1.0" encoding="UTF-8"?>
<svg width="785px" height="976px" viewBox="0 0 785 976" version="1.1" xmlns="http://www.w3.org/2000/svg" xmlns:xlink="http://www.w3.org/1999/xlink">
    <title>startIcon</title>
    <g id="Page-1" stroke="none" stroke-width="1" fill="none" fill-rule="evenodd">
        <g id="startIcon" transform="translate(392.500000, 488.000000) scale(1, -1) translate(-392.500000, -488.000000) translate(175.000000, 0.000000)" fill="#F8FAFA" fill-rule="nonzero">
            <path d="M261.74,487.57 C280.24,469.62 307.03,442.41 334.06,410.81 C401.06,332.51 435,267.36 435,217.15 C435,97.41 337.43,-5.68434189e-14 217.5,-5.68434189e-14 C97.57,-5.68434189e-14 -5.68434189e-14,97.4 -5.68434189e-14,217.15 C-5.68434189e-14,267.36 34,332.51 100.94,410.81 C125.03,438.97 147.37,463.19 173.06,487.81 C154.57,505.81 127.87,532.9 100.94,564.38 C33.94,642.68 -5.68434189e-14,707.83 -5.68434189e-14,758.04 C-5.68434189e-14,877.78 97.57,975.19 217.5,975.19 C337.43,975.19 435,877.78 435,758.04 C435,707.83 401,642.68 334.06,564.38 C307.03,532.74 280.24,505.53 261.74,487.57 Z M146.14,371.4 C71.14,283.65 60,237.08 60,217.13 C60,130.4 130.66,59.9 217.5,59.9 C304.34,59.9 375,130.4 375,217.15 C375,237.1 363.81,283.67 288.86,371.42 C262.15,402.69 235.15,429.88 217.5,446.93 C199.85,429.89 172.85,402.69 146.14,371.4 Z M217.5,915.23 C130.65,915.23 60,844.69 60,757.98 C60,737.98 71.19,691.46 146.14,603.71 C172.85,572.44 199.85,545.24 217.5,528.2 C235.15,545.2 262.15,572.44 288.86,603.71 C363.81,691.46 375,738.03 375,757.98 C375,844.71 304.35,915.25 217.5,915.25 L217.5,915.23 Z" id="Shape"></path>
            <path d="M217.5,573.4 C217.5,573.4 92.12,685.89 92.12,757.31 C92.12,828.73 148.25,886.63 217.5,886.63 C286.75,886.63 342.88,828.73 342.88,757.31 C342.88,685.89 217.5,573.4 217.5,573.4 Z" id="Path"></path>
        </g>
    </g>
</svg>