<svg id="Layer_1" data-name="Layer 1" xmlns="http://www.w3.org/2000/svg" viewBox="0 0 435 975.15"><defs><style>.cls-1{fill:#231f20;}</style></defs><path class="cls-1" d="M643.08,717.17c18.5-17.95,45.29-45.16,72.32-76.76,67-78.3,100.94-143.45,100.94-193.66,0-119.74-97.57-217.15-217.5-217.15S381.34,327,381.34,446.75c0,50.21,34,115.36,100.94,193.66,24.09,28.16,46.43,52.38,72.12,77-18.49,18-45.19,45.09-72.12,76.57-67,78.3-100.94,143.45-100.94,193.66,0,119.74,97.57,217.15,217.5,217.15s217.5-97.41,217.5-217.15c0-50.21-34-115.36-100.94-193.66C688.37,762.34,661.58,735.13,643.08,717.17ZM527.48,601c-75-87.75-86.14-134.32-86.14-154.27C441.34,360,512,289.5,598.84,289.5S756.34,360,756.34,446.75c0,19.95-11.19,66.52-86.14,154.27-26.71,31.27-53.71,58.46-71.36,75.51C581.19,659.49,554.19,632.29,527.48,601Zm71.36,543.83c-86.85,0-157.5-70.54-157.5-157.25,0-20,11.19-66.52,86.14-154.27,26.71-31.27,53.71-58.47,71.36-75.51,17.65,17,44.65,44.24,71.36,75.51,74.95,87.75,86.14,134.32,86.14,154.27C756.34,1074.31,685.69,1144.85,598.84,1144.85Z" transform="translate(-381.34 -229.6)"/><path class="cls-1" d="M598.84,803S473.46,915.49,473.46,986.91s56.13,129.32,125.38,129.32,125.38-57.9,125.38-129.32S598.84,803,598.84,803Z" transform="translate(-381.34 -229.6)"/></svg>